<mxfile host="app.diagrams.net" agent="Mozilla/5.0 (Windows NT 10.0; Win64; x64) AppleWebKit/537.36 (KHTML, like Gecko) Chrome/132.0.0.0 Safari/537.36 Edg/132.0.0.0" version="26.0.6">
  <diagram id="C5RBs43oDa-KdzZeNtuy" name="Page-1">
    <mxGraphModel dx="925" dy="535" grid="1" gridSize="10" guides="1" tooltips="1" connect="1" arrows="1" fold="1" page="1" pageScale="1" pageWidth="827" pageHeight="1169" math="0" shadow="0">
      <root>
        <mxCell id="WIyWlLk6GJQsqaUBKTNV-0" />
        <mxCell id="WIyWlLk6GJQsqaUBKTNV-1" parent="WIyWlLk6GJQsqaUBKTNV-0" />
        <mxCell id="Bh9FMY4sWhjK6AzyBswc-40" value="" style="rounded=0;orthogonalLoop=1;jettySize=auto;html=1;" edge="1" parent="WIyWlLk6GJQsqaUBKTNV-1" source="Bh9FMY4sWhjK6AzyBswc-0" target="Bh9FMY4sWhjK6AzyBswc-12">
          <mxGeometry relative="1" as="geometry" />
        </mxCell>
        <mxCell id="Bh9FMY4sWhjK6AzyBswc-41" style="rounded=0;orthogonalLoop=1;jettySize=auto;html=1;" edge="1" parent="WIyWlLk6GJQsqaUBKTNV-1" source="Bh9FMY4sWhjK6AzyBswc-0" target="Bh9FMY4sWhjK6AzyBswc-17">
          <mxGeometry relative="1" as="geometry" />
        </mxCell>
        <mxCell id="Bh9FMY4sWhjK6AzyBswc-0" value="VroomRacer" style="rounded=0;whiteSpace=wrap;html=1;" vertex="1" parent="WIyWlLk6GJQsqaUBKTNV-1">
          <mxGeometry x="25" y="400" width="95" height="30" as="geometry" />
        </mxCell>
        <mxCell id="Bh9FMY4sWhjK6AzyBswc-3" value="Buttons.h" style="rounded=1;whiteSpace=wrap;html=1;" vertex="1" parent="WIyWlLk6GJQsqaUBKTNV-1">
          <mxGeometry x="110" y="230" width="90" height="40" as="geometry" />
        </mxCell>
        <mxCell id="Bh9FMY4sWhjK6AzyBswc-15" style="rounded=0;orthogonalLoop=1;jettySize=auto;html=1;entryX=0;entryY=0.5;entryDx=0;entryDy=0;" edge="1" parent="WIyWlLk6GJQsqaUBKTNV-1" source="Bh9FMY4sWhjK6AzyBswc-4" target="Bh9FMY4sWhjK6AzyBswc-5">
          <mxGeometry relative="1" as="geometry" />
        </mxCell>
        <mxCell id="Bh9FMY4sWhjK6AzyBswc-4" value="ISR" style="rounded=1;whiteSpace=wrap;html=1;" vertex="1" parent="WIyWlLk6GJQsqaUBKTNV-1">
          <mxGeometry x="50" y="20" width="70" height="40" as="geometry" />
        </mxCell>
        <mxCell id="Bh9FMY4sWhjK6AzyBswc-16" value="" style="rounded=0;orthogonalLoop=1;jettySize=auto;html=1;" edge="1" parent="WIyWlLk6GJQsqaUBKTNV-1" source="Bh9FMY4sWhjK6AzyBswc-5" target="Bh9FMY4sWhjK6AzyBswc-10">
          <mxGeometry relative="1" as="geometry" />
        </mxCell>
        <mxCell id="Bh9FMY4sWhjK6AzyBswc-5" value="Detection" style="rounded=1;whiteSpace=wrap;html=1;" vertex="1" parent="WIyWlLk6GJQsqaUBKTNV-1">
          <mxGeometry x="170" y="50" width="70" height="30" as="geometry" />
        </mxCell>
        <mxCell id="Bh9FMY4sWhjK6AzyBswc-6" value="Lane" style="rounded=1;whiteSpace=wrap;html=1;" vertex="1" parent="WIyWlLk6GJQsqaUBKTNV-1">
          <mxGeometry x="260" y="180" width="90" height="40" as="geometry" />
        </mxCell>
        <mxCell id="Bh9FMY4sWhjK6AzyBswc-33" value="" style="rounded=0;orthogonalLoop=1;jettySize=auto;html=1;" edge="1" parent="WIyWlLk6GJQsqaUBKTNV-1" source="Bh9FMY4sWhjK6AzyBswc-7" target="Bh9FMY4sWhjK6AzyBswc-25">
          <mxGeometry relative="1" as="geometry" />
        </mxCell>
        <mxCell id="Bh9FMY4sWhjK6AzyBswc-7" value="Lights" style="rounded=1;whiteSpace=wrap;html=1;" vertex="1" parent="WIyWlLk6GJQsqaUBKTNV-1">
          <mxGeometry x="470" y="140" width="120" height="60" as="geometry" />
        </mxCell>
        <mxCell id="Bh9FMY4sWhjK6AzyBswc-36" value="" style="rounded=0;orthogonalLoop=1;jettySize=auto;html=1;" edge="1" parent="WIyWlLk6GJQsqaUBKTNV-1" source="Bh9FMY4sWhjK6AzyBswc-8" target="Bh9FMY4sWhjK6AzyBswc-35">
          <mxGeometry relative="1" as="geometry" />
        </mxCell>
        <mxCell id="Bh9FMY4sWhjK6AzyBswc-39" style="rounded=0;orthogonalLoop=1;jettySize=auto;html=1;" edge="1" parent="WIyWlLk6GJQsqaUBKTNV-1" source="Bh9FMY4sWhjK6AzyBswc-8" target="Bh9FMY4sWhjK6AzyBswc-37">
          <mxGeometry relative="1" as="geometry" />
        </mxCell>
        <mxCell id="Bh9FMY4sWhjK6AzyBswc-8" value="MyLCD" style="rounded=1;whiteSpace=wrap;html=1;" vertex="1" parent="WIyWlLk6GJQsqaUBKTNV-1">
          <mxGeometry x="480" y="60" width="120" height="60" as="geometry" />
        </mxCell>
        <mxCell id="Bh9FMY4sWhjK6AzyBswc-31" style="rounded=0;orthogonalLoop=1;jettySize=auto;html=1;entryX=0;entryY=0.5;entryDx=0;entryDy=0;" edge="1" parent="WIyWlLk6GJQsqaUBKTNV-1" source="Bh9FMY4sWhjK6AzyBswc-9" target="Bh9FMY4sWhjK6AzyBswc-23">
          <mxGeometry relative="1" as="geometry" />
        </mxCell>
        <mxCell id="Bh9FMY4sWhjK6AzyBswc-9" value="MyTone" style="rounded=1;whiteSpace=wrap;html=1;" vertex="1" parent="WIyWlLk6GJQsqaUBKTNV-1">
          <mxGeometry x="500" y="230" width="80" height="40" as="geometry" />
        </mxCell>
        <mxCell id="Bh9FMY4sWhjK6AzyBswc-20" style="rounded=0;orthogonalLoop=1;jettySize=auto;html=1;" edge="1" parent="WIyWlLk6GJQsqaUBKTNV-1" source="Bh9FMY4sWhjK6AzyBswc-10" target="Bh9FMY4sWhjK6AzyBswc-17">
          <mxGeometry relative="1" as="geometry" />
        </mxCell>
        <mxCell id="Bh9FMY4sWhjK6AzyBswc-10" value="RingBuffer" style="rounded=1;whiteSpace=wrap;html=1;" vertex="1" parent="WIyWlLk6GJQsqaUBKTNV-1">
          <mxGeometry x="155" y="100" width="100" height="30" as="geometry" />
        </mxCell>
        <mxCell id="Bh9FMY4sWhjK6AzyBswc-14" style="rounded=0;orthogonalLoop=1;jettySize=auto;html=1;entryX=1;entryY=0.25;entryDx=0;entryDy=0;" edge="1" parent="WIyWlLk6GJQsqaUBKTNV-1" source="Bh9FMY4sWhjK6AzyBswc-11" target="Bh9FMY4sWhjK6AzyBswc-4">
          <mxGeometry relative="1" as="geometry" />
        </mxCell>
        <mxCell id="Bh9FMY4sWhjK6AzyBswc-11" value="Sensor" style="rounded=1;whiteSpace=wrap;html=1;" vertex="1" parent="WIyWlLk6GJQsqaUBKTNV-1">
          <mxGeometry x="310" y="20" width="70" height="30" as="geometry" />
        </mxCell>
        <mxCell id="Bh9FMY4sWhjK6AzyBswc-13" value="starts" style="rounded=0;orthogonalLoop=1;jettySize=auto;html=1;" edge="1" parent="WIyWlLk6GJQsqaUBKTNV-1" source="Bh9FMY4sWhjK6AzyBswc-12" target="Bh9FMY4sWhjK6AzyBswc-4">
          <mxGeometry relative="1" as="geometry" />
        </mxCell>
        <mxCell id="Bh9FMY4sWhjK6AzyBswc-18" style="rounded=0;orthogonalLoop=1;jettySize=auto;html=1;" edge="1" parent="WIyWlLk6GJQsqaUBKTNV-1" source="Bh9FMY4sWhjK6AzyBswc-12" target="Bh9FMY4sWhjK6AzyBswc-17">
          <mxGeometry relative="1" as="geometry" />
        </mxCell>
        <mxCell id="Bh9FMY4sWhjK6AzyBswc-12" value="setup" style="ellipse;whiteSpace=wrap;html=1;" vertex="1" parent="WIyWlLk6GJQsqaUBKTNV-1">
          <mxGeometry x="30" y="330" width="90" height="40" as="geometry" />
        </mxCell>
        <mxCell id="Bh9FMY4sWhjK6AzyBswc-22" value="checks" style="rounded=0;orthogonalLoop=1;jettySize=auto;html=1;" edge="1" parent="WIyWlLk6GJQsqaUBKTNV-1" source="Bh9FMY4sWhjK6AzyBswc-17" target="Bh9FMY4sWhjK6AzyBswc-3">
          <mxGeometry relative="1" as="geometry" />
        </mxCell>
        <mxCell id="Bh9FMY4sWhjK6AzyBswc-26" value="informs" style="rounded=0;orthogonalLoop=1;jettySize=auto;html=1;" edge="1" parent="WIyWlLk6GJQsqaUBKTNV-1" source="Bh9FMY4sWhjK6AzyBswc-17" target="Bh9FMY4sWhjK6AzyBswc-6">
          <mxGeometry relative="1" as="geometry" />
        </mxCell>
        <mxCell id="Bh9FMY4sWhjK6AzyBswc-27" value="alerts" style="rounded=0;orthogonalLoop=1;jettySize=auto;html=1;entryX=0;entryY=0.5;entryDx=0;entryDy=0;" edge="1" parent="WIyWlLk6GJQsqaUBKTNV-1" source="Bh9FMY4sWhjK6AzyBswc-17" target="Bh9FMY4sWhjK6AzyBswc-7">
          <mxGeometry relative="1" as="geometry" />
        </mxCell>
        <mxCell id="Bh9FMY4sWhjK6AzyBswc-29" value="plays" style="rounded=0;orthogonalLoop=1;jettySize=auto;html=1;entryX=0;entryY=0.5;entryDx=0;entryDy=0;" edge="1" parent="WIyWlLk6GJQsqaUBKTNV-1" source="Bh9FMY4sWhjK6AzyBswc-17" target="Bh9FMY4sWhjK6AzyBswc-9">
          <mxGeometry relative="1" as="geometry" />
        </mxCell>
        <mxCell id="Bh9FMY4sWhjK6AzyBswc-17" value="loop" style="rounded=0;whiteSpace=wrap;html=1;" vertex="1" parent="WIyWlLk6GJQsqaUBKTNV-1">
          <mxGeometry x="180" y="330" width="75" height="30" as="geometry" />
        </mxCell>
        <mxCell id="Bh9FMY4sWhjK6AzyBswc-23" value="passive&lt;div&gt;buzzer&lt;/div&gt;" style="triangle;whiteSpace=wrap;html=1;" vertex="1" parent="WIyWlLk6GJQsqaUBKTNV-1">
          <mxGeometry x="620" y="210" width="60" height="80" as="geometry" />
        </mxCell>
        <mxCell id="Bh9FMY4sWhjK6AzyBswc-24" value="Serial" style="shape=document;whiteSpace=wrap;html=1;boundedLbl=1;" vertex="1" parent="WIyWlLk6GJQsqaUBKTNV-1">
          <mxGeometry x="500" y="315" width="80" height="60" as="geometry" />
        </mxCell>
        <mxCell id="Bh9FMY4sWhjK6AzyBswc-25" value="LED" style="ellipse;whiteSpace=wrap;html=1;aspect=fixed;" vertex="1" parent="WIyWlLk6GJQsqaUBKTNV-1">
          <mxGeometry x="630" y="152.5" width="35" height="35" as="geometry" />
        </mxCell>
        <mxCell id="Bh9FMY4sWhjK6AzyBswc-28" value="displays to" style="rounded=0;orthogonalLoop=1;jettySize=auto;html=1;entryX=0;entryY=0.389;entryDx=0;entryDy=0;entryPerimeter=0;" edge="1" parent="WIyWlLk6GJQsqaUBKTNV-1" source="Bh9FMY4sWhjK6AzyBswc-6" target="Bh9FMY4sWhjK6AzyBswc-8">
          <mxGeometry relative="1" as="geometry" />
        </mxCell>
        <mxCell id="Bh9FMY4sWhjK6AzyBswc-35" value="LCD" style="shape=process;whiteSpace=wrap;html=1;backgroundOutline=1;" vertex="1" parent="WIyWlLk6GJQsqaUBKTNV-1">
          <mxGeometry x="650" y="50" width="110" height="30" as="geometry" />
        </mxCell>
        <mxCell id="Bh9FMY4sWhjK6AzyBswc-37" value="LCD" style="shape=process;whiteSpace=wrap;html=1;backgroundOutline=1;" vertex="1" parent="WIyWlLk6GJQsqaUBKTNV-1">
          <mxGeometry x="650" y="100" width="110" height="30" as="geometry" />
        </mxCell>
      </root>
    </mxGraphModel>
  </diagram>
</mxfile>
